<?xml version="1.0" encoding="UTF-8" standalone="no"?><svg xmlns="http://www.w3.org/2000/svg" xmlns:xlink="http://www.w3.org/1999/xlink" contentScriptType="application/ecmascript" contentStyleType="text/css" height="873.75px" preserveAspectRatio="none" style="width:1038px;height:873px;" version="1.1" viewBox="0 0 1038 873" width="1038.75px" zoomAndPan="magnify"><defs><filter height="300%" id="f7v5b3y5gsimc" width="300%" x="-1" y="-1"><feGaussianBlur result="blurOut" stdDeviation="2.5"/><feColorMatrix in="blurOut" result="blurOut2" type="matrix" values="0 0 0 0 0 0 0 0 0 0 0 0 0 0 0 0 0 0 .4 0"/><feOffset dx="5.0" dy="5.0" in="blurOut2" result="blurOut3"/><feBlend in="SourceGraphic" in2="blurOut3" mode="normal"/></filter></defs><g><line style="stroke:#A80036;stroke-width:1.25;stroke-dasharray:5.0,5.0;" x1="30" x2="30" y1="112.0117" y2="767.2852"/><line style="stroke:#A80036;stroke-width:1.25;stroke-dasharray:5.0,5.0;" x1="308.75" x2="308.75" y1="112.0117" y2="767.2852"/><line style="stroke:#A80036;stroke-width:1.25;stroke-dasharray:5.0,5.0;" x1="471.25" x2="471.25" y1="112.0117" y2="767.2852"/><line style="stroke:#A80036;stroke-width:1.25;stroke-dasharray:5.0,5.0;" x1="658.75" x2="658.75" y1="112.0117" y2="767.2852"/><line style="stroke:#A80036;stroke-width:1.25;stroke-dasharray:5.0,5.0;" x1="787.5" x2="787.5" y1="112.0117" y2="767.2852"/><line style="stroke:#A80036;stroke-width:1.25;stroke-dasharray:5.0,5.0;" x1="901.25" x2="901.25" y1="112.0117" y2="767.2852"/><line style="stroke:#A80036;stroke-width:1.25;stroke-dasharray:5.0,5.0;" x1="993.75" x2="993.75" y1="112.0117" y2="767.2852"/><text fill="#000000" font-family="sans-serif" font-size="17.5" lengthAdjust="spacing" textLength="41.25" x="6.25" y="108.1665">Actor</text><ellipse cx="30.625" cy="18.75" fill="#FEFECE" filter="url(#f7v5b3y5gsimc)" rx="10" ry="10" style="stroke:#A80036;stroke-width:2.5;"/><path d="M30.625,28.75 L30.625,62.5 M14.375,38.75 L46.875,38.75 M30.625,62.5 L14.375,81.25 M30.625,62.5 L46.875,81.25 " fill="none" filter="url(#f7v5b3y5gsimc)" style="stroke:#A80036;stroke-width:2.5;"/><text fill="#000000" font-family="sans-serif" font-size="17.5" lengthAdjust="spacing" textLength="41.25" x="6.25" y="784.2017">Actor</text><ellipse cx="30.625" cy="800.5469" fill="#FEFECE" filter="url(#f7v5b3y5gsimc)" rx="10" ry="10" style="stroke:#A80036;stroke-width:2.5;"/><path d="M30.625,810.5469 L30.625,844.2969 M14.375,820.5469 L46.875,820.5469 M30.625,844.2969 L14.375,863.0469 M30.625,844.2969 L46.875,863.0469 " fill="none" filter="url(#f7v5b3y5gsimc)" style="stroke:#A80036;stroke-width:2.5;"/><text fill="#000000" font-family="sans-serif" font-size="17.5" font-style="italic" lengthAdjust="spacing" textLength="97.5" x="256.875" y="86.1548">«Controller»</text><text fill="#000000" font-family="sans-serif" font-size="17.5" lengthAdjust="spacing" textLength="158.75" x="226.25" y="108.1665">UsersControllerRest</text><ellipse cx="309.375" cy="47.9883" fill="#B5BD68" filter="url(#f7v5b3y5gsimc)" rx="15" ry="15" style="stroke:#718C00;stroke-width:2.5;"/><polygon fill="#718C00" points="304.375,32.9883,311.875,26.7383,309.375,32.9883,311.875,39.2383,304.375,32.9883" style="stroke:#718C00;stroke-width:1.25;"/><text fill="#000000" font-family="sans-serif" font-size="17.5" font-style="italic" lengthAdjust="spacing" textLength="97.5" x="256.875" y="784.2017">«Controller»</text><text fill="#000000" font-family="sans-serif" font-size="17.5" lengthAdjust="spacing" textLength="158.75" x="226.25" y="806.2134">UsersControllerRest</text><ellipse cx="309.375" cy="830.0586" fill="#B5BD68" filter="url(#f7v5b3y5gsimc)" rx="15" ry="15" style="stroke:#718C00;stroke-width:2.5;"/><polygon fill="#718C00" points="304.375,815.0586,311.875,808.8086,309.375,815.0586,311.875,821.3086,304.375,815.0586" style="stroke:#718C00;stroke-width:1.25;"/><text fill="#000000" font-family="sans-serif" font-size="17.5" font-style="italic" lengthAdjust="spacing" textLength="97.5" x="419.375" y="86.1548">«Controller»</text><text fill="#000000" font-family="sans-serif" font-size="17.5" lengthAdjust="spacing" textLength="126.25" x="405" y="108.1665">UserServiceImpl</text><ellipse cx="471.875" cy="47.9883" fill="#B5BD68" filter="url(#f7v5b3y5gsimc)" rx="15" ry="15" style="stroke:#718C00;stroke-width:2.5;"/><polygon fill="#718C00" points="466.875,32.9883,474.375,26.7383,471.875,32.9883,474.375,39.2383,466.875,32.9883" style="stroke:#718C00;stroke-width:1.25;"/><text fill="#000000" font-family="sans-serif" font-size="17.5" font-style="italic" lengthAdjust="spacing" textLength="97.5" x="419.375" y="784.2017">«Controller»</text><text fill="#000000" font-family="sans-serif" font-size="17.5" lengthAdjust="spacing" textLength="126.25" x="405" y="806.2134">UserServiceImpl</text><ellipse cx="471.875" cy="830.0586" fill="#B5BD68" filter="url(#f7v5b3y5gsimc)" rx="15" ry="15" style="stroke:#718C00;stroke-width:2.5;"/><polygon fill="#718C00" points="466.875,815.0586,474.375,808.8086,471.875,815.0586,474.375,821.3086,466.875,815.0586" style="stroke:#718C00;stroke-width:1.25;"/><text fill="#000000" font-family="sans-serif" font-size="17.5" lengthAdjust="spacing" textLength="96.25" x="607.5" y="108.1665">UserMapper</text><ellipse cx="659.375" cy="70" fill="#B5BD68" filter="url(#f7v5b3y5gsimc)" rx="15" ry="15" style="stroke:#718C00;stroke-width:2.5;"/><polygon fill="#718C00" points="654.375,55,661.875,48.75,659.375,55,661.875,61.25,654.375,55" style="stroke:#718C00;stroke-width:1.25;"/><text fill="#000000" font-family="sans-serif" font-size="17.5" lengthAdjust="spacing" textLength="96.25" x="607.5" y="784.2017">UserMapper</text><ellipse cx="659.375" cy="808.0469" fill="#B5BD68" filter="url(#f7v5b3y5gsimc)" rx="15" ry="15" style="stroke:#718C00;stroke-width:2.5;"/><polygon fill="#718C00" points="654.375,793.0469,661.875,786.7969,659.375,793.0469,661.875,799.2969,654.375,793.0469" style="stroke:#718C00;stroke-width:1.25;"/><text fill="#000000" font-family="sans-serif" font-size="17.5" lengthAdjust="spacing" textLength="121.25" x="723.75" y="108.1665">UserRepository</text><ellipse cx="788.125" cy="70" fill="#B5BD68" filter="url(#f7v5b3y5gsimc)" rx="15" ry="15" style="stroke:#718C00;stroke-width:2.5;"/><polygon fill="#718C00" points="783.125,55,790.625,48.75,788.125,55,790.625,61.25,783.125,55" style="stroke:#718C00;stroke-width:1.25;"/><text fill="#000000" font-family="sans-serif" font-size="17.5" lengthAdjust="spacing" textLength="121.25" x="723.75" y="784.2017">UserRepository</text><ellipse cx="788.125" cy="808.0469" fill="#B5BD68" filter="url(#f7v5b3y5gsimc)" rx="15" ry="15" style="stroke:#718C00;stroke-width:2.5;"/><polygon fill="#718C00" points="783.125,793.0469,790.625,786.7969,788.125,793.0469,790.625,799.2969,783.125,793.0469" style="stroke:#718C00;stroke-width:1.25;"/><text fill="#000000" font-family="sans-serif" font-size="17.5" font-style="italic" lengthAdjust="spacing" textLength="56.25" x="869.375" y="89.2993">«View»</text><text fill="#000000" font-family="sans-serif" font-size="15" lengthAdjust="spacing" textLength="65" x="865" y="108.7158">UserDTO</text><path d="M875.625,36.1328 L875.625,66.1328 M875.625,51.1328 L896.875,51.1328 " fill="none" filter="url(#f7v5b3y5gsimc)" style="stroke:#000000;stroke-width:2.5;"/><ellipse cx="911.875" cy="51.1328" fill="#629EF9" filter="url(#f7v5b3y5gsimc)" rx="15" ry="15" style="stroke:#000000;stroke-width:2.5;"/><text fill="#000000" font-family="sans-serif" font-size="17.5" font-style="italic" lengthAdjust="spacing" textLength="56.25" x="869.375" y="784.2017">«View»</text><text fill="#000000" font-family="sans-serif" font-size="15" lengthAdjust="spacing" textLength="65" x="865" y="803.6182">UserDTO</text><path d="M875.625,811.9141 L875.625,841.9141 M875.625,826.9141 L896.875,826.9141 " fill="none" filter="url(#f7v5b3y5gsimc)" style="stroke:#000000;stroke-width:2.5;"/><ellipse cx="911.875" cy="826.9141" fill="#629EF9" filter="url(#f7v5b3y5gsimc)" rx="15" ry="15" style="stroke:#000000;stroke-width:2.5;"/><text fill="#000000" font-family="sans-serif" font-size="17.5" font-style="italic" lengthAdjust="spacing" textLength="68.75" x="955.625" y="86.1548">«Model»</text><text fill="#000000" font-family="sans-serif" font-size="17.5" lengthAdjust="spacing" textLength="80" x="950" y="108.1665">UserEntity</text><ellipse cx="993.75" cy="47.9883" fill="#F2AC4E" filter="url(#f7v5b3y5gsimc)" rx="15" ry="15" style="stroke:#000000;stroke-width:2.5;"/><line style="stroke:#000000;stroke-width:2.5;" x1="978.75" x2="1008.75" y1="65.4883" y2="65.4883"/><text fill="#000000" font-family="sans-serif" font-size="17.5" font-style="italic" lengthAdjust="spacing" textLength="68.75" x="955.625" y="784.2017">«Model»</text><text fill="#000000" font-family="sans-serif" font-size="17.5" lengthAdjust="spacing" textLength="80" x="950" y="806.2134">UserEntity</text><ellipse cx="993.75" cy="830.0586" fill="#F2AC4E" filter="url(#f7v5b3y5gsimc)" rx="15" ry="15" style="stroke:#000000;stroke-width:2.5;"/><line style="stroke:#000000;stroke-width:2.5;" x1="978.75" x2="1008.75" y1="847.5586" y2="847.5586"/><polygon fill="#A80036" points="294.375,147.4512,306.875,152.4512,294.375,157.4512,299.375,152.4512" style="stroke:#A80036;stroke-width:1.25;"/><line style="stroke:#A80036;stroke-width:1.25;" x1="30.625" x2="301.875" y1="152.4512" y2="152.4512"/><text fill="#000000" font-family="sans-serif" font-size="16.25" lengthAdjust="spacing" textLength="248.75" x="39.375" y="146.3806">POST /users (body: userDto Json)</text><polygon fill="#808080" points="886.25,185.3906,898.75,190.3906,886.25,195.3906,891.25,190.3906" style="stroke:#808080;stroke-width:1.25;"/><line style="stroke:#808080;stroke-width:1.25;" x1="309.375" x2="893.75" y1="190.3906" y2="190.3906"/><text fill="#808080" font-family="sans-serif" font-size="16.25" lengthAdjust="spacing" textLength="32.5" x="323.125" y="184.3201">get()</text><polygon fill="#808080" points="323.125,202.8906,310.625,207.8906,323.125,212.8906,318.125,207.8906" style="stroke:#808080;stroke-width:1.25;"/><line style="stroke:#808080;stroke-width:1.25;stroke-dasharray:2.0,2.0;" x1="315.625" x2="900" y1="207.8906" y2="207.8906"/><polygon fill="#A80036" points="456.875,240.8301,469.375,245.8301,456.875,250.8301,461.875,245.8301" style="stroke:#A80036;stroke-width:1.25;"/><line style="stroke:#A80036;stroke-width:1.25;" x1="309.375" x2="464.375" y1="245.8301" y2="245.8301"/><text fill="#000000" font-family="sans-serif" font-size="16.25" lengthAdjust="spacing" textLength="111.25" x="318.125" y="239.7595">create(userDto)</text><polygon fill="#A80036" points="644.375,278.7695,656.875,283.7695,644.375,288.7695,649.375,283.7695" style="stroke:#A80036;stroke-width:1.25;"/><line style="stroke:#A80036;stroke-width:1.25;" x1="471.875" x2="651.875" y1="283.7695" y2="283.7695"/><text fill="#000000" font-family="sans-serif" font-size="16.25" lengthAdjust="spacing" textLength="157.5" x="480.625" y="277.699">mapToEntity(userDto)</text><polygon fill="#808080" points="886.25,316.709,898.75,321.709,886.25,326.709,891.25,321.709" style="stroke:#808080;stroke-width:1.25;"/><line style="stroke:#808080;stroke-width:1.25;" x1="659.375" x2="893.75" y1="321.709" y2="321.709"/><text fill="#808080" font-family="sans-serif" font-size="16.25" lengthAdjust="spacing" textLength="32.5" x="673.125" y="315.6384">get()</text><polygon fill="#808080" points="673.125,334.209,660.625,339.209,673.125,344.209,668.125,339.209" style="stroke:#808080;stroke-width:1.25;"/><line style="stroke:#808080;stroke-width:1.25;stroke-dasharray:2.0,2.0;" x1="665.625" x2="900" y1="339.209" y2="339.209"/><polygon fill="#808080" points="978.75,372.1484,991.25,377.1484,978.75,382.1484,983.75,377.1484" style="stroke:#808080;stroke-width:1.25;"/><line style="stroke:#808080;stroke-width:1.25;" x1="659.375" x2="986.25" y1="377.1484" y2="377.1484"/><text fill="#808080" font-family="sans-serif" font-size="16.25" lengthAdjust="spacing" textLength="32.5" x="673.125" y="371.0779">set()</text><polygon fill="#808080" points="673.125,389.6484,660.625,394.6484,673.125,399.6484,668.125,394.6484" style="stroke:#808080;stroke-width:1.25;"/><line style="stroke:#808080;stroke-width:1.25;stroke-dasharray:2.0,2.0;" x1="665.625" x2="992.5" y1="394.6484" y2="394.6484"/><polygon fill="#A80036" points="485.625,407.1484,473.125,412.1484,485.625,417.1484,480.625,412.1484" style="stroke:#A80036;stroke-width:1.25;"/><line style="stroke:#A80036;stroke-width:1.25;stroke-dasharray:2.0,2.0;" x1="478.125" x2="658.125" y1="412.1484" y2="412.1484"/><polygon fill="#A80036" points="773.125,445.0879,785.625,450.0879,773.125,455.0879,778.125,450.0879" style="stroke:#A80036;stroke-width:1.25;"/><line style="stroke:#A80036;stroke-width:1.25;" x1="471.875" x2="780.625" y1="450.0879" y2="450.0879"/><text fill="#000000" font-family="sans-serif" font-size="16.25" lengthAdjust="spacing" textLength="116.25" x="480.625" y="444.0173">save(userEntity)</text><polygon fill="#808080" points="978.75,483.0273,991.25,488.0273,978.75,493.0273,983.75,488.0273" style="stroke:#808080;stroke-width:1.25;"/><line style="stroke:#808080;stroke-width:1.25;" x1="788.125" x2="986.25" y1="488.0273" y2="488.0273"/><text fill="#808080" font-family="sans-serif" font-size="16.25" lengthAdjust="spacing" textLength="32.5" x="801.875" y="481.9568">get()</text><polygon fill="#808080" points="801.875,500.5273,789.375,505.5273,801.875,510.5273,796.875,505.5273" style="stroke:#808080;stroke-width:1.25;"/><line style="stroke:#808080;stroke-width:1.25;stroke-dasharray:2.0,2.0;" x1="794.375" x2="992.5" y1="505.5273" y2="505.5273"/><polygon fill="#A80036" points="485.625,518.0273,473.125,523.0273,485.625,528.0273,480.625,523.0273" style="stroke:#A80036;stroke-width:1.25;"/><line style="stroke:#A80036;stroke-width:1.25;stroke-dasharray:2.0,2.0;" x1="478.125" x2="786.875" y1="523.0273" y2="523.0273"/><polygon fill="#A80036" points="644.375,555.9668,656.875,560.9668,644.375,565.9668,649.375,560.9668" style="stroke:#A80036;stroke-width:1.25;"/><line style="stroke:#A80036;stroke-width:1.25;" x1="471.875" x2="651.875" y1="560.9668" y2="560.9668"/><text fill="#000000" font-family="sans-serif" font-size="16.25" lengthAdjust="spacing" textLength="157.5" x="480.625" y="554.8962">mapToDto(userEntity)</text><polygon fill="#808080" points="978.75,593.9063,991.25,598.9063,978.75,603.9063,983.75,598.9063" style="stroke:#808080;stroke-width:1.25;"/><line style="stroke:#808080;stroke-width:1.25;" x1="659.375" x2="986.25" y1="598.9063" y2="598.9063"/><text fill="#808080" font-family="sans-serif" font-size="16.25" lengthAdjust="spacing" textLength="32.5" x="673.125" y="592.8357">get()</text><polygon fill="#808080" points="673.125,611.4063,660.625,616.4063,673.125,621.4063,668.125,616.4063" style="stroke:#808080;stroke-width:1.25;"/><line style="stroke:#808080;stroke-width:1.25;stroke-dasharray:2.0,2.0;" x1="665.625" x2="992.5" y1="616.4063" y2="616.4063"/><polygon fill="#808080" points="886.25,649.3457,898.75,654.3457,886.25,659.3457,891.25,654.3457" style="stroke:#808080;stroke-width:1.25;"/><line style="stroke:#808080;stroke-width:1.25;" x1="659.375" x2="893.75" y1="654.3457" y2="654.3457"/><text fill="#808080" font-family="sans-serif" font-size="16.25" lengthAdjust="spacing" textLength="32.5" x="673.125" y="648.2751">set()</text><polygon fill="#808080" points="673.125,666.8457,660.625,671.8457,673.125,676.8457,668.125,671.8457" style="stroke:#808080;stroke-width:1.25;"/><line style="stroke:#808080;stroke-width:1.25;stroke-dasharray:2.0,2.0;" x1="665.625" x2="900" y1="671.8457" y2="671.8457"/><polygon fill="#A80036" points="485.625,684.3457,473.125,689.3457,485.625,694.3457,480.625,689.3457" style="stroke:#A80036;stroke-width:1.25;"/><line style="stroke:#A80036;stroke-width:1.25;stroke-dasharray:2.0,2.0;" x1="478.125" x2="658.125" y1="689.3457" y2="689.3457"/><polygon fill="#A80036" points="323.125,701.8457,310.625,706.8457,323.125,711.8457,318.125,706.8457" style="stroke:#A80036;stroke-width:1.25;"/><line style="stroke:#A80036;stroke-width:1.25;stroke-dasharray:2.0,2.0;" x1="315.625" x2="470.625" y1="706.8457" y2="706.8457"/><polygon fill="#A80036" points="44.375,739.7852,31.875,744.7852,44.375,749.7852,39.375,744.7852" style="stroke:#A80036;stroke-width:1.25;"/><line style="stroke:#A80036;stroke-width:1.25;stroke-dasharray:2.0,2.0;" x1="36.875" x2="308.125" y1="744.7852" y2="744.7852"/><text fill="#000000" font-family="sans-serif" font-size="16.25" lengthAdjust="spacing" textLength="226.25" x="51.875" y="738.7146">HTTP 200 (body: userDto Json)</text><!--MD5=[be8aedd638deffa650e9ae81f334e420]
@startuml
'https://plantuml.com/sequence-diagram

!include skinParams.puml


actor Actor
control UsersControllerRest <<Controller>>
control UserServiceImpl <<Controller>>
control UserMapper
control UserRepository
boundary UserDTO <<View>>
entity UserEntity <<Model>>

Actor -> UsersControllerRest : POST /users (body: userDto Json)
UsersControllerRest -[#Gray]> UserDTO : <color:#Gray> get()
UserDTO -[#Gray]-> UsersControllerRest
UsersControllerRest -> UserServiceImpl : create(userDto)
UserServiceImpl -> UserMapper : mapToEntity(userDto)
UserMapper [#Gray]-> UserDTO : <color:#Gray> get()
UserDTO -[#Gray]-> UserMapper
UserMapper [#Gray]-> UserEntity : <color:#Gray> set()
UserEntity -[#Gray]-> UserMapper
UserMapper - -> UserServiceImpl
UserServiceImpl -> UserRepository : save(userEntity)
UserRepository [#Gray]-> UserEntity : <color:#Gray> get()
UserEntity -[#Gray]-> UserRepository
UserRepository - -> UserServiceImpl
UserServiceImpl -> UserMapper : mapToDto(userEntity)
UserMapper [#Gray]-> UserEntity : <color:#Gray> get()
UserEntity -[#Gray]-> UserMapper
UserMapper [#Gray]-> UserDTO : <color:#Gray> set()
UserDTO -[#Gray]-> UserMapper
UserMapper - -> UserServiceImpl
UserServiceImpl - -> UsersControllerRest
UsersControllerRest - -> Actor : HTTP 200 (body: userDto Json)

@enduml

@startuml


skinparam {
    BoundaryBackgroundColor #629EF9
    BoundaryBorderColor black
    BoundaryFontSize 12
    BoundarySize 10
    ControlBackgroundColor #b5bd68
    ControlBorderColor #718c00
    EntityBackgroundColor #F2AC4E
    EntityBorderColor black
}



actor Actor
control UsersControllerRest <<Controller>>
control UserServiceImpl <<Controller>>
control UserMapper
control UserRepository
boundary UserDTO <<View>>
entity UserEntity <<Model>>

Actor -> UsersControllerRest : POST /users (body: userDto Json)
UsersControllerRest -[#Gray]> UserDTO : <color:#Gray> get()
UserDTO -[#Gray]-> UsersControllerRest
UsersControllerRest -> UserServiceImpl : create(userDto)
UserServiceImpl -> UserMapper : mapToEntity(userDto)
UserMapper [#Gray]-> UserDTO : <color:#Gray> get()
UserDTO -[#Gray]-> UserMapper
UserMapper [#Gray]-> UserEntity : <color:#Gray> set()
UserEntity -[#Gray]-> UserMapper
UserMapper - -> UserServiceImpl
UserServiceImpl -> UserRepository : save(userEntity)
UserRepository [#Gray]-> UserEntity : <color:#Gray> get()
UserEntity -[#Gray]-> UserRepository
UserRepository - -> UserServiceImpl
UserServiceImpl -> UserMapper : mapToDto(userEntity)
UserMapper [#Gray]-> UserEntity : <color:#Gray> get()
UserEntity -[#Gray]-> UserMapper
UserMapper [#Gray]-> UserDTO : <color:#Gray> set()
UserDTO -[#Gray]-> UserMapper
UserMapper - -> UserServiceImpl
UserServiceImpl - -> UsersControllerRest
UsersControllerRest - -> Actor : HTTP 200 (body: userDto Json)

@enduml

PlantUML version 1.2021.00(Sun Jan 10 11:25:05 CET 2021)
(GPL source distribution)
Java Runtime: OpenJDK Runtime Environment
JVM: OpenJDK 64-Bit Server VM
Default Encoding: Cp1252
Language: en
Country: GB
--></g></svg>