<?xml version="1.0" encoding="UTF-8" standalone="no"?><svg xmlns="http://www.w3.org/2000/svg" xmlns:xlink="http://www.w3.org/1999/xlink" contentScriptType="application/ecmascript" contentStyleType="text/css" height="928.75px" preserveAspectRatio="none" style="width:1165px;height:928px;" version="1.1" viewBox="0 0 1165 928" width="1165px" zoomAndPan="magnify"><defs><filter height="300%" id="f13ihi03be4k38" width="300%" x="-1" y="-1"><feGaussianBlur result="blurOut" stdDeviation="2.5"/><feColorMatrix in="blurOut" result="blurOut2" type="matrix" values="0 0 0 0 0 0 0 0 0 0 0 0 0 0 0 0 0 0 .4 0"/><feOffset dx="5.0" dy="5.0" in="blurOut2" result="blurOut3"/><feBlend in="SourceGraphic" in2="blurOut3" mode="normal"/></filter></defs><g><line style="stroke:#A80036;stroke-width:1.25;stroke-dasharray:5.0,5.0;" x1="30" x2="30" y1="112.0117" y2="822.7246"/><line style="stroke:#A80036;stroke-width:1.25;stroke-dasharray:5.0,5.0;" x1="308.75" x2="308.75" y1="112.0117" y2="822.7246"/><line style="stroke:#A80036;stroke-width:1.25;stroke-dasharray:5.0,5.0;" x1="457.5" x2="457.5" y1="112.0117" y2="822.7246"/><line style="stroke:#A80036;stroke-width:1.25;stroke-dasharray:5.0,5.0;" x1="598.125" x2="598.125" y1="112.0117" y2="822.7246"/><line style="stroke:#A80036;stroke-width:1.25;stroke-dasharray:5.0,5.0;" x1="785.625" x2="785.625" y1="112.0117" y2="822.7246"/><line style="stroke:#A80036;stroke-width:1.25;stroke-dasharray:5.0,5.0;" x1="914.375" x2="914.375" y1="112.0117" y2="822.7246"/><line style="stroke:#A80036;stroke-width:1.25;stroke-dasharray:5.0,5.0;" x1="1028.125" x2="1028.125" y1="112.0117" y2="822.7246"/><line style="stroke:#A80036;stroke-width:1.25;stroke-dasharray:5.0,5.0;" x1="1120.625" x2="1120.625" y1="112.0117" y2="822.7246"/><text fill="#000000" font-family="sans-serif" font-size="17.5" lengthAdjust="spacing" textLength="41.25" x="6.25" y="108.1665">Actor</text><ellipse cx="30.625" cy="18.75" fill="#FEFECE" filter="url(#f13ihi03be4k38)" rx="10" ry="10" style="stroke:#A80036;stroke-width:2.5;"/><path d="M30.625,28.75 L30.625,62.5 M14.375,38.75 L46.875,38.75 M30.625,62.5 L14.375,81.25 M30.625,62.5 L46.875,81.25 " fill="none" filter="url(#f13ihi03be4k38)" style="stroke:#A80036;stroke-width:2.5;"/><text fill="#000000" font-family="sans-serif" font-size="17.5" lengthAdjust="spacing" textLength="41.25" x="6.25" y="839.6411">Actor</text><ellipse cx="30.625" cy="855.9863" fill="#FEFECE" filter="url(#f13ihi03be4k38)" rx="10" ry="10" style="stroke:#A80036;stroke-width:2.5;"/><path d="M30.625,865.9863 L30.625,899.7363 M14.375,875.9863 L46.875,875.9863 M30.625,899.7363 L14.375,918.4863 M30.625,899.7363 L46.875,918.4863 " fill="none" filter="url(#f13ihi03be4k38)" style="stroke:#A80036;stroke-width:2.5;"/><text fill="#000000" font-family="sans-serif" font-size="17.5" font-style="italic" lengthAdjust="spacing" textLength="97.5" x="256.875" y="86.1548">«Controller»</text><text fill="#000000" font-family="sans-serif" font-size="17.5" lengthAdjust="spacing" textLength="158.75" x="226.25" y="108.1665">UsersControllerRest</text><ellipse cx="309.375" cy="47.9883" fill="#B5BD68" filter="url(#f13ihi03be4k38)" rx="15" ry="15" style="stroke:#718C00;stroke-width:2.5;"/><polygon fill="#718C00" points="304.375,32.9883,311.875,26.7383,309.375,32.9883,311.875,39.2383,304.375,32.9883" style="stroke:#718C00;stroke-width:1.25;"/><text fill="#000000" font-family="sans-serif" font-size="17.5" font-style="italic" lengthAdjust="spacing" textLength="97.5" x="256.875" y="839.6411">«Controller»</text><text fill="#000000" font-family="sans-serif" font-size="17.5" lengthAdjust="spacing" textLength="158.75" x="226.25" y="861.6528">UsersControllerRest</text><ellipse cx="309.375" cy="885.498" fill="#B5BD68" filter="url(#f13ihi03be4k38)" rx="15" ry="15" style="stroke:#718C00;stroke-width:2.5;"/><polygon fill="#718C00" points="304.375,870.498,311.875,864.248,309.375,870.498,311.875,876.748,304.375,870.498" style="stroke:#718C00;stroke-width:1.25;"/><text fill="#000000" font-family="sans-serif" font-size="17.5" font-style="italic" lengthAdjust="spacing" textLength="97.5" x="405" y="86.1548">«Controller»</text><text fill="#000000" font-family="sans-serif" font-size="17.5" lengthAdjust="spacing" textLength="95" x="406.25" y="108.1665">UserService</text><ellipse cx="457.5" cy="47.9883" fill="#B5BD68" filter="url(#f13ihi03be4k38)" rx="15" ry="15" style="stroke:#718C00;stroke-width:2.5;"/><polygon fill="#718C00" points="452.5,32.9883,460,26.7383,457.5,32.9883,460,39.2383,452.5,32.9883" style="stroke:#718C00;stroke-width:1.25;"/><text fill="#000000" font-family="sans-serif" font-size="17.5" font-style="italic" lengthAdjust="spacing" textLength="97.5" x="405" y="839.6411">«Controller»</text><text fill="#000000" font-family="sans-serif" font-size="17.5" lengthAdjust="spacing" textLength="95" x="406.25" y="861.6528">UserService</text><ellipse cx="457.5" cy="885.498" fill="#B5BD68" filter="url(#f13ihi03be4k38)" rx="15" ry="15" style="stroke:#718C00;stroke-width:2.5;"/><polygon fill="#718C00" points="452.5,870.498,460,864.248,457.5,870.498,460,876.748,452.5,870.498" style="stroke:#718C00;stroke-width:1.25;"/><text fill="#000000" font-family="sans-serif" font-size="17.5" font-style="italic" lengthAdjust="spacing" textLength="97.5" x="546.25" y="86.1548">«Controller»</text><text fill="#000000" font-family="sans-serif" font-size="17.5" lengthAdjust="spacing" textLength="126.25" x="531.875" y="108.1665">UserServiceImpl</text><ellipse cx="598.75" cy="47.9883" fill="#B5BD68" filter="url(#f13ihi03be4k38)" rx="15" ry="15" style="stroke:#718C00;stroke-width:2.5;"/><polygon fill="#718C00" points="593.75,32.9883,601.25,26.7383,598.75,32.9883,601.25,39.2383,593.75,32.9883" style="stroke:#718C00;stroke-width:1.25;"/><text fill="#000000" font-family="sans-serif" font-size="17.5" font-style="italic" lengthAdjust="spacing" textLength="97.5" x="546.25" y="839.6411">«Controller»</text><text fill="#000000" font-family="sans-serif" font-size="17.5" lengthAdjust="spacing" textLength="126.25" x="531.875" y="861.6528">UserServiceImpl</text><ellipse cx="598.75" cy="885.498" fill="#B5BD68" filter="url(#f13ihi03be4k38)" rx="15" ry="15" style="stroke:#718C00;stroke-width:2.5;"/><polygon fill="#718C00" points="593.75,870.498,601.25,864.248,598.75,870.498,601.25,876.748,593.75,870.498" style="stroke:#718C00;stroke-width:1.25;"/><text fill="#000000" font-family="sans-serif" font-size="17.5" lengthAdjust="spacing" textLength="96.25" x="734.375" y="108.1665">UserMapper</text><ellipse cx="786.25" cy="70" fill="#B5BD68" filter="url(#f13ihi03be4k38)" rx="15" ry="15" style="stroke:#718C00;stroke-width:2.5;"/><polygon fill="#718C00" points="781.25,55,788.75,48.75,786.25,55,788.75,61.25,781.25,55" style="stroke:#718C00;stroke-width:1.25;"/><text fill="#000000" font-family="sans-serif" font-size="17.5" lengthAdjust="spacing" textLength="96.25" x="734.375" y="839.6411">UserMapper</text><ellipse cx="786.25" cy="863.4863" fill="#B5BD68" filter="url(#f13ihi03be4k38)" rx="15" ry="15" style="stroke:#718C00;stroke-width:2.5;"/><polygon fill="#718C00" points="781.25,848.4863,788.75,842.2363,786.25,848.4863,788.75,854.7363,781.25,848.4863" style="stroke:#718C00;stroke-width:1.25;"/><text fill="#000000" font-family="sans-serif" font-size="17.5" lengthAdjust="spacing" textLength="121.25" x="850.625" y="108.1665">UserRepository</text><ellipse cx="915" cy="70" fill="#B5BD68" filter="url(#f13ihi03be4k38)" rx="15" ry="15" style="stroke:#718C00;stroke-width:2.5;"/><polygon fill="#718C00" points="910,55,917.5,48.75,915,55,917.5,61.25,910,55" style="stroke:#718C00;stroke-width:1.25;"/><text fill="#000000" font-family="sans-serif" font-size="17.5" lengthAdjust="spacing" textLength="121.25" x="850.625" y="839.6411">UserRepository</text><ellipse cx="915" cy="863.4863" fill="#B5BD68" filter="url(#f13ihi03be4k38)" rx="15" ry="15" style="stroke:#718C00;stroke-width:2.5;"/><polygon fill="#718C00" points="910,848.4863,917.5,842.2363,915,848.4863,917.5,854.7363,910,848.4863" style="stroke:#718C00;stroke-width:1.25;"/><text fill="#000000" font-family="sans-serif" font-size="17.5" font-style="italic" lengthAdjust="spacing" textLength="56.25" x="996.25" y="89.2993">«View»</text><text fill="#000000" font-family="sans-serif" font-size="15" lengthAdjust="spacing" textLength="65" x="991.875" y="108.7158">UserDTO</text><path d="M1002.5,36.1328 L1002.5,66.1328 M1002.5,51.1328 L1023.75,51.1328 " fill="none" filter="url(#f13ihi03be4k38)" style="stroke:#000000;stroke-width:2.5;"/><ellipse cx="1038.75" cy="51.1328" fill="#629EF9" filter="url(#f13ihi03be4k38)" rx="15" ry="15" style="stroke:#000000;stroke-width:2.5;"/><text fill="#000000" font-family="sans-serif" font-size="17.5" font-style="italic" lengthAdjust="spacing" textLength="56.25" x="996.25" y="839.6411">«View»</text><text fill="#000000" font-family="sans-serif" font-size="15" lengthAdjust="spacing" textLength="65" x="991.875" y="859.0576">UserDTO</text><path d="M1002.5,867.3535 L1002.5,897.3535 M1002.5,882.3535 L1023.75,882.3535 " fill="none" filter="url(#f13ihi03be4k38)" style="stroke:#000000;stroke-width:2.5;"/><ellipse cx="1038.75" cy="882.3535" fill="#629EF9" filter="url(#f13ihi03be4k38)" rx="15" ry="15" style="stroke:#000000;stroke-width:2.5;"/><text fill="#000000" font-family="sans-serif" font-size="17.5" font-style="italic" lengthAdjust="spacing" textLength="68.75" x="1082.5" y="86.1548">«Model»</text><text fill="#000000" font-family="sans-serif" font-size="17.5" lengthAdjust="spacing" textLength="80" x="1076.875" y="108.1665">UserEntity</text><ellipse cx="1120.625" cy="47.9883" fill="#F2AC4E" filter="url(#f13ihi03be4k38)" rx="15" ry="15" style="stroke:#000000;stroke-width:2.5;"/><line style="stroke:#000000;stroke-width:2.5;" x1="1105.625" x2="1135.625" y1="65.4883" y2="65.4883"/><text fill="#000000" font-family="sans-serif" font-size="17.5" font-style="italic" lengthAdjust="spacing" textLength="68.75" x="1082.5" y="839.6411">«Model»</text><text fill="#000000" font-family="sans-serif" font-size="17.5" lengthAdjust="spacing" textLength="80" x="1076.875" y="861.6528">UserEntity</text><ellipse cx="1120.625" cy="885.498" fill="#F2AC4E" filter="url(#f13ihi03be4k38)" rx="15" ry="15" style="stroke:#000000;stroke-width:2.5;"/><line style="stroke:#000000;stroke-width:2.5;" x1="1105.625" x2="1135.625" y1="902.998" y2="902.998"/><polygon fill="#A80036" points="294.375,147.4512,306.875,152.4512,294.375,157.4512,299.375,152.4512" style="stroke:#A80036;stroke-width:1.25;"/><line style="stroke:#A80036;stroke-width:1.25;" x1="30.625" x2="301.875" y1="152.4512" y2="152.4512"/><text fill="#000000" font-family="sans-serif" font-size="16.25" lengthAdjust="spacing" textLength="248.75" x="39.375" y="146.3806">POST /users (body: userDto Json)</text><polygon fill="#808080" points="1013.125,185.3906,1025.625,190.3906,1013.125,195.3906,1018.125,190.3906" style="stroke:#808080;stroke-width:1.25;"/><line style="stroke:#808080;stroke-width:1.25;" x1="309.375" x2="1020.625" y1="190.3906" y2="190.3906"/><text fill="#808080" font-family="sans-serif" font-size="16.25" lengthAdjust="spacing" textLength="32.5" x="323.125" y="184.3201">get()</text><polygon fill="#808080" points="323.125,202.8906,310.625,207.8906,323.125,212.8906,318.125,207.8906" style="stroke:#808080;stroke-width:1.25;"/><line style="stroke:#808080;stroke-width:1.25;stroke-dasharray:2.0,2.0;" x1="315.625" x2="1026.875" y1="207.8906" y2="207.8906"/><polygon fill="#A80036" points="442.5,240.8301,455,245.8301,442.5,250.8301,447.5,245.8301" style="stroke:#A80036;stroke-width:1.25;"/><line style="stroke:#A80036;stroke-width:1.25;" x1="309.375" x2="450" y1="245.8301" y2="245.8301"/><text fill="#000000" font-family="sans-serif" font-size="16.25" lengthAdjust="spacing" textLength="111.25" x="318.125" y="239.7595">create(userDto)</text><polygon fill="#A80036" points="583.75,278.7695,596.25,283.7695,583.75,288.7695,588.75,283.7695" style="stroke:#A80036;stroke-width:1.25;"/><line style="stroke:#A80036;stroke-width:1.25;" x1="457.5" x2="591.25" y1="283.7695" y2="283.7695"/><text fill="#000000" font-family="sans-serif" font-size="16.25" lengthAdjust="spacing" textLength="111.25" x="466.25" y="277.699">create(userDto)</text><polygon fill="#A80036" points="771.25,316.709,783.75,321.709,771.25,326.709,776.25,321.709" style="stroke:#A80036;stroke-width:1.25;"/><line style="stroke:#A80036;stroke-width:1.25;" x1="598.75" x2="778.75" y1="321.709" y2="321.709"/><text fill="#000000" font-family="sans-serif" font-size="16.25" lengthAdjust="spacing" textLength="157.5" x="607.5" y="315.6384">mapToEntity(userDto)</text><polygon fill="#808080" points="1013.125,354.6484,1025.625,359.6484,1013.125,364.6484,1018.125,359.6484" style="stroke:#808080;stroke-width:1.25;"/><line style="stroke:#808080;stroke-width:1.25;" x1="786.25" x2="1020.625" y1="359.6484" y2="359.6484"/><text fill="#808080" font-family="sans-serif" font-size="16.25" lengthAdjust="spacing" textLength="32.5" x="800" y="353.5779">get()</text><polygon fill="#808080" points="800,372.1484,787.5,377.1484,800,382.1484,795,377.1484" style="stroke:#808080;stroke-width:1.25;"/><line style="stroke:#808080;stroke-width:1.25;stroke-dasharray:2.0,2.0;" x1="792.5" x2="1026.875" y1="377.1484" y2="377.1484"/><polygon fill="#808080" points="1105.625,410.0879,1118.125,415.0879,1105.625,420.0879,1110.625,415.0879" style="stroke:#808080;stroke-width:1.25;"/><line style="stroke:#808080;stroke-width:1.25;" x1="786.25" x2="1113.125" y1="415.0879" y2="415.0879"/><text fill="#808080" font-family="sans-serif" font-size="16.25" lengthAdjust="spacing" textLength="32.5" x="800" y="409.0173">set()</text><polygon fill="#808080" points="800,427.5879,787.5,432.5879,800,437.5879,795,432.5879" style="stroke:#808080;stroke-width:1.25;"/><line style="stroke:#808080;stroke-width:1.25;stroke-dasharray:2.0,2.0;" x1="792.5" x2="1119.375" y1="432.5879" y2="432.5879"/><polygon fill="#A80036" points="612.5,445.0879,600,450.0879,612.5,455.0879,607.5,450.0879" style="stroke:#A80036;stroke-width:1.25;"/><line style="stroke:#A80036;stroke-width:1.25;stroke-dasharray:2.0,2.0;" x1="605" x2="785" y1="450.0879" y2="450.0879"/><polygon fill="#A80036" points="900,483.0273,912.5,488.0273,900,493.0273,905,488.0273" style="stroke:#A80036;stroke-width:1.25;"/><line style="stroke:#A80036;stroke-width:1.25;" x1="598.75" x2="907.5" y1="488.0273" y2="488.0273"/><text fill="#000000" font-family="sans-serif" font-size="16.25" lengthAdjust="spacing" textLength="116.25" x="607.5" y="481.9568">save(userEntity)</text><polygon fill="#808080" points="1105.625,520.9668,1118.125,525.9668,1105.625,530.9668,1110.625,525.9668" style="stroke:#808080;stroke-width:1.25;"/><line style="stroke:#808080;stroke-width:1.25;" x1="915" x2="1113.125" y1="525.9668" y2="525.9668"/><text fill="#808080" font-family="sans-serif" font-size="16.25" lengthAdjust="spacing" textLength="32.5" x="928.75" y="519.8962">get()</text><polygon fill="#808080" points="928.75,538.4668,916.25,543.4668,928.75,548.4668,923.75,543.4668" style="stroke:#808080;stroke-width:1.25;"/><line style="stroke:#808080;stroke-width:1.25;stroke-dasharray:2.0,2.0;" x1="921.25" x2="1119.375" y1="543.4668" y2="543.4668"/><polygon fill="#A80036" points="612.5,555.9668,600,560.9668,612.5,565.9668,607.5,560.9668" style="stroke:#A80036;stroke-width:1.25;"/><line style="stroke:#A80036;stroke-width:1.25;stroke-dasharray:2.0,2.0;" x1="605" x2="913.75" y1="560.9668" y2="560.9668"/><polygon fill="#A80036" points="771.25,593.9063,783.75,598.9063,771.25,603.9063,776.25,598.9063" style="stroke:#A80036;stroke-width:1.25;"/><line style="stroke:#A80036;stroke-width:1.25;" x1="598.75" x2="778.75" y1="598.9063" y2="598.9063"/><text fill="#000000" font-family="sans-serif" font-size="16.25" lengthAdjust="spacing" textLength="157.5" x="607.5" y="592.8357">mapToDto(userEntity)</text><polygon fill="#808080" points="1105.625,631.8457,1118.125,636.8457,1105.625,641.8457,1110.625,636.8457" style="stroke:#808080;stroke-width:1.25;"/><line style="stroke:#808080;stroke-width:1.25;" x1="786.25" x2="1113.125" y1="636.8457" y2="636.8457"/><text fill="#808080" font-family="sans-serif" font-size="16.25" lengthAdjust="spacing" textLength="32.5" x="800" y="630.7751">get()</text><polygon fill="#808080" points="800,649.3457,787.5,654.3457,800,659.3457,795,654.3457" style="stroke:#808080;stroke-width:1.25;"/><line style="stroke:#808080;stroke-width:1.25;stroke-dasharray:2.0,2.0;" x1="792.5" x2="1119.375" y1="654.3457" y2="654.3457"/><polygon fill="#808080" points="1013.125,687.2852,1025.625,692.2852,1013.125,697.2852,1018.125,692.2852" style="stroke:#808080;stroke-width:1.25;"/><line style="stroke:#808080;stroke-width:1.25;" x1="786.25" x2="1020.625" y1="692.2852" y2="692.2852"/><text fill="#808080" font-family="sans-serif" font-size="16.25" lengthAdjust="spacing" textLength="32.5" x="800" y="686.2146">set()</text><polygon fill="#808080" points="800,704.7852,787.5,709.7852,800,714.7852,795,709.7852" style="stroke:#808080;stroke-width:1.25;"/><line style="stroke:#808080;stroke-width:1.25;stroke-dasharray:2.0,2.0;" x1="792.5" x2="1026.875" y1="709.7852" y2="709.7852"/><polygon fill="#A80036" points="612.5,722.2852,600,727.2852,612.5,732.2852,607.5,727.2852" style="stroke:#A80036;stroke-width:1.25;"/><line style="stroke:#A80036;stroke-width:1.25;stroke-dasharray:2.0,2.0;" x1="605" x2="785" y1="727.2852" y2="727.2852"/><polygon fill="#A80036" points="471.25,739.7852,458.75,744.7852,471.25,749.7852,466.25,744.7852" style="stroke:#A80036;stroke-width:1.25;"/><line style="stroke:#A80036;stroke-width:1.25;stroke-dasharray:2.0,2.0;" x1="463.75" x2="597.5" y1="744.7852" y2="744.7852"/><polygon fill="#A80036" points="323.125,757.2852,310.625,762.2852,323.125,767.2852,318.125,762.2852" style="stroke:#A80036;stroke-width:1.25;"/><line style="stroke:#A80036;stroke-width:1.25;stroke-dasharray:2.0,2.0;" x1="315.625" x2="456.25" y1="762.2852" y2="762.2852"/><polygon fill="#A80036" points="44.375,795.2246,31.875,800.2246,44.375,805.2246,39.375,800.2246" style="stroke:#A80036;stroke-width:1.25;"/><line style="stroke:#A80036;stroke-width:1.25;stroke-dasharray:2.0,2.0;" x1="36.875" x2="308.125" y1="800.2246" y2="800.2246"/><text fill="#000000" font-family="sans-serif" font-size="16.25" lengthAdjust="spacing" textLength="226.25" x="51.875" y="794.1541">HTTP 200 (body: userDto Json)</text><!--MD5=[06f6d196c793fe0883a077dd708fb932]
@startuml
'https://plantuml.com/sequence-diagram

!include skinParams.puml


actor Actor
control UsersControllerRest <<Controller>>
control UserService  <<Controller>>
control UserServiceImpl <<Controller>>
control UserMapper
control UserRepository
boundary UserDTO <<View>>
entity UserEntity <<Model>>

Actor -> UsersControllerRest : POST /users (body: userDto Json)
UsersControllerRest -[#Gray]> UserDTO : <color:#Gray> get()
UserDTO -[#Gray]-> UsersControllerRest
UsersControllerRest -> UserService : create(userDto)
UserService -> UserServiceImpl : create(userDto)
UserServiceImpl -> UserMapper : mapToEntity(userDto)
UserMapper [#Gray]-> UserDTO : <color:#Gray> get()
UserDTO -[#Gray]-> UserMapper
UserMapper [#Gray]-> UserEntity : <color:#Gray> set()
UserEntity -[#Gray]-> UserMapper
UserMapper - -> UserServiceImpl
UserServiceImpl -> UserRepository : save(userEntity)
UserRepository [#Gray]-> UserEntity : <color:#Gray> get()
UserEntity -[#Gray]-> UserRepository
UserRepository - -> UserServiceImpl
UserServiceImpl -> UserMapper : mapToDto(userEntity)
UserMapper [#Gray]-> UserEntity : <color:#Gray> get()
UserEntity -[#Gray]-> UserMapper
UserMapper [#Gray]-> UserDTO : <color:#Gray> set()
UserDTO -[#Gray]-> UserMapper
UserMapper - -> UserServiceImpl
UserServiceImpl - -> UserService
UserService - -> UsersControllerRest
UsersControllerRest - -> Actor : HTTP 200 (body: userDto Json)

@enduml

@startuml


skinparam {
    BoundaryBackgroundColor #629EF9
    BoundaryBorderColor black
    BoundaryFontSize 12
    BoundarySize 10
    ControlBackgroundColor #b5bd68
    ControlBorderColor #718c00
    EntityBackgroundColor #F2AC4E
    EntityBorderColor black
}



actor Actor
control UsersControllerRest <<Controller>>
control UserService  <<Controller>>
control UserServiceImpl <<Controller>>
control UserMapper
control UserRepository
boundary UserDTO <<View>>
entity UserEntity <<Model>>

Actor -> UsersControllerRest : POST /users (body: userDto Json)
UsersControllerRest -[#Gray]> UserDTO : <color:#Gray> get()
UserDTO -[#Gray]-> UsersControllerRest
UsersControllerRest -> UserService : create(userDto)
UserService -> UserServiceImpl : create(userDto)
UserServiceImpl -> UserMapper : mapToEntity(userDto)
UserMapper [#Gray]-> UserDTO : <color:#Gray> get()
UserDTO -[#Gray]-> UserMapper
UserMapper [#Gray]-> UserEntity : <color:#Gray> set()
UserEntity -[#Gray]-> UserMapper
UserMapper - -> UserServiceImpl
UserServiceImpl -> UserRepository : save(userEntity)
UserRepository [#Gray]-> UserEntity : <color:#Gray> get()
UserEntity -[#Gray]-> UserRepository
UserRepository - -> UserServiceImpl
UserServiceImpl -> UserMapper : mapToDto(userEntity)
UserMapper [#Gray]-> UserEntity : <color:#Gray> get()
UserEntity -[#Gray]-> UserMapper
UserMapper [#Gray]-> UserDTO : <color:#Gray> set()
UserDTO -[#Gray]-> UserMapper
UserMapper - -> UserServiceImpl
UserServiceImpl - -> UserService
UserService - -> UsersControllerRest
UsersControllerRest - -> Actor : HTTP 200 (body: userDto Json)

@enduml

PlantUML version 1.2021.00(Sun Jan 10 11:25:05 CET 2021)
(GPL source distribution)
Java Runtime: OpenJDK Runtime Environment
JVM: OpenJDK 64-Bit Server VM
Default Encoding: Cp1252
Language: en
Country: GB
--></g></svg>