<?xml version="1.0" encoding="UTF-8" standalone="no"?><svg xmlns="http://www.w3.org/2000/svg" xmlns:xlink="http://www.w3.org/1999/xlink" contentScriptType="application/ecmascript" contentStyleType="text/css" height="1065px" preserveAspectRatio="none" style="width:813px;height:1065px;" version="1.1" viewBox="0 0 813 1065" width="813.75px" zoomAndPan="magnify"><defs><filter height="300%" id="f1wpp952mxbzpw" width="300%" x="-1" y="-1"><feGaussianBlur result="blurOut" stdDeviation="2.5"/><feColorMatrix in="blurOut" result="blurOut2" type="matrix" values="0 0 0 0 0 0 0 0 0 0 0 0 0 0 0 0 0 0 .4 0"/><feOffset dx="5.0" dy="5.0" in="blurOut2" result="blurOut3"/><feBlend in="SourceGraphic" in2="blurOut3" mode="normal"/></filter></defs><g><!--MD5=[defabee32bf27ab9b6d052a40ee1178b]
cluster model_view_controller--><polygon fill="#FFFFFF" filter="url(#f1wpp952mxbzpw)" points="20,7.5,211.25,7.5,220,37.0117,223.75,37.0117,223.75,554.375,20,554.375,20,7.5" style="stroke:#000000;stroke-width:1.875;"/><line style="stroke:#000000;stroke-width:1.875;" x1="20" x2="220" y1="37.0117" y2="37.0117"/><text fill="#000000" font-family="sans-serif" font-size="17.5" font-weight="bold" lengthAdjust="spacing" textLength="183.75" x="25" y="28.1665">model view contoller</text><!--MD5=[5472706a180a4e78bf457b997ee4bdd9]
cluster spring_api_rest--><polygon fill="#FFFFFF" filter="url(#f1wpp952mxbzpw)" points="273.75,215,408.75,215,417.5,244.5117,792.5,244.5117,792.5,1056.875,273.75,1056.875,273.75,215" style="stroke:#000000;stroke-width:1.875;"/><line style="stroke:#000000;stroke-width:1.875;" x1="273.75" x2="417.5" y1="244.5117" y2="244.5117"/><text fill="#000000" font-family="sans-serif" font-size="17.5" font-weight="bold" lengthAdjust="spacing" textLength="127.5" x="278.75" y="235.6665">spring api rest</text><!--MD5=[854490cbfb8eedee4432d73740ee6d75]
entity View--><path d="M74.375,287.5 L74.375,317.5 M74.375,302.5 L95.625,302.5 " fill="none" filter="url(#f1wpp952mxbzpw)" style="stroke:#000000;stroke-width:1.875;"/><ellipse cx="110.625" cy="302.5" fill="#9FB7E5" filter="url(#f1wpp952mxbzpw)" rx="15" ry="15" style="stroke:#000000;stroke-width:1.875;"/><text fill="#000000" font-family="sans-serif" font-size="15" lengthAdjust="spacing" textLength="32.5" x="83.75" y="338.0713">View</text><!--MD5=[f855680bc6c989572ebb25245d27968d]
entity Controller--><ellipse cx="131.25" cy="82.5" fill="#C4E4AB" filter="url(#f1wpp952mxbzpw)" rx="15" ry="15" style="stroke:#718C00;stroke-width:1.875;"/><polygon fill="#718C00" points="126.25,67.5,133.75,61.25,131.25,67.5,133.75,73.75,126.25,67.5" style="stroke:#718C00;stroke-width:1.25;"/><text fill="#000000" font-family="sans-serif" font-size="17.5" lengthAdjust="spacing" textLength="77.5" x="92.5" y="120.6665">Controller</text><!--MD5=[d98cb1d0eeb2b90d1ef52cfc0fcf4fea]
entity Model--><ellipse cx="153.75" cy="481.875" fill="#F2AC4E" filter="url(#f1wpp952mxbzpw)" rx="15" ry="15" style="stroke:#000000;stroke-width:1.875;"/><line style="stroke:#000000;stroke-width:1.875;" x1="138.75" x2="168.75" y1="499.375" y2="499.375"/><text fill="#000000" font-family="sans-serif" font-size="17.5" lengthAdjust="spacing" textLength="47.5" x="130" y="520.0415">Model</text><!--MD5=[e68188fa7a8975ac571e4708db8768ad]
entity UsersControllerRest--><ellipse cx="407.5" cy="312.0117" fill="#B5BD68" filter="url(#f1wpp952mxbzpw)" rx="15" ry="15" style="stroke:#718C00;stroke-width:1.875;"/><polygon fill="#718C00" points="402.5,297.0117,410,290.7617,407.5,297.0117,410,303.2617,402.5,297.0117" style="stroke:#718C00;stroke-width:1.25;"/><text fill="#000000" font-family="sans-serif" font-size="17.5" lengthAdjust="spacing" textLength="158.75" x="328.125" y="350.1782">UsersControllerRest</text><text fill="#000000" font-family="sans-serif" font-size="17.5" font-style="italic" lengthAdjust="spacing" textLength="97.5" x="358.75" y="288.1665">«Controller»</text><!--MD5=[43a817812dddb31c7306ddcbea69bb00]
entity UserService--><ellipse cx="526.25" cy="493.2617" fill="#B5BD68" filter="url(#f1wpp952mxbzpw)" rx="15" ry="15" style="stroke:#718C00;stroke-width:1.875;"/><polygon fill="#718C00" points="521.25,478.2617,528.75,472.0117,526.25,478.2617,528.75,484.5117,521.25,478.2617" style="stroke:#718C00;stroke-width:1.25;"/><text fill="#000000" font-family="sans-serif" font-size="17.5" lengthAdjust="spacing" textLength="95" x="478.75" y="531.4282">UserService</text><text fill="#000000" font-family="sans-serif" font-size="17.5" font-style="italic" lengthAdjust="spacing" textLength="97.5" x="477.5" y="469.4165">«Controller»</text><!--MD5=[5bfcc61e3ddd5604ee07028877ea396e]
entity UserServiceImpl--><ellipse cx="585" cy="665.1367" fill="#B5BD68" filter="url(#f1wpp952mxbzpw)" rx="15" ry="15" style="stroke:#718C00;stroke-width:1.875;"/><polygon fill="#718C00" points="580,650.1367,587.5,643.8867,585,650.1367,587.5,656.3867,580,650.1367" style="stroke:#718C00;stroke-width:1.25;"/><text fill="#000000" font-family="sans-serif" font-size="17.5" lengthAdjust="spacing" textLength="126.25" x="521.875" y="703.3032">UserServiceImpl</text><text fill="#000000" font-family="sans-serif" font-size="17.5" font-style="italic" lengthAdjust="spacing" textLength="97.5" x="536.25" y="641.2915">«Controller»</text><!--MD5=[7d412a390dd69261473d3ba40a8f48d3]
entity UserDTO--><path d="M335.625,971.3867 L335.625,1001.3867 M335.625,986.3867 L356.875,986.3867 " fill="none" filter="url(#f1wpp952mxbzpw)" style="stroke:#000000;stroke-width:1.875;"/><ellipse cx="371.875" cy="986.3867" fill="#629EF9" filter="url(#f1wpp952mxbzpw)" rx="15" ry="15" style="stroke:#000000;stroke-width:1.875;"/><text fill="#000000" font-family="sans-serif" font-size="15" lengthAdjust="spacing" textLength="65" x="328.75" y="1021.958">UserDTO</text><text fill="#000000" font-family="sans-serif" font-size="17.5" font-style="italic" lengthAdjust="spacing" textLength="56.25" x="333.125" y="962.5415">«View»</text><!--MD5=[ff13891a8723ce0f073b77f872270d63]
entity UserEntity--><ellipse cx="548.75" cy="985.1367" fill="#F2AC4E" filter="url(#f1wpp952mxbzpw)" rx="15" ry="15" style="stroke:#000000;stroke-width:1.875;"/><line style="stroke:#000000;stroke-width:1.875;" x1="533.75" x2="563.75" y1="1002.6367" y2="1002.6367"/><text fill="#000000" font-family="sans-serif" font-size="17.5" lengthAdjust="spacing" textLength="80" x="508.75" y="1023.3032">UserEntity</text><text fill="#000000" font-family="sans-serif" font-size="17.5" font-style="italic" lengthAdjust="spacing" textLength="68.75" x="514.375" y="961.2915">«Model»</text><!--MD5=[131ef957277a2e64bc2c66aab59271f7]
entity UserRepository--><ellipse cx="701.25" cy="824.375" fill="#B5BD68" filter="url(#f1wpp952mxbzpw)" rx="15" ry="15" style="stroke:#718C00;stroke-width:1.875;"/><polygon fill="#718C00" points="696.25,809.375,703.75,803.125,701.25,809.375,703.75,815.625,696.25,809.375" style="stroke:#718C00;stroke-width:1.25;"/><text fill="#000000" font-family="sans-serif" font-size="17.5" lengthAdjust="spacing" textLength="121.25" x="640.625" y="862.5415">UserRepository</text><!--MD5=[262e8cf8463c5aa1fef2fdae3bccbc66]
entity UserMapper--><ellipse cx="501.25" cy="824.375" fill="#B5BD68" filter="url(#f1wpp952mxbzpw)" rx="15" ry="15" style="stroke:#718C00;stroke-width:1.875;"/><polygon fill="#718C00" points="496.25,809.375,503.75,803.125,501.25,809.375,503.75,815.625,496.25,809.375" style="stroke:#718C00;stroke-width:1.25;"/><text fill="#000000" font-family="sans-serif" font-size="17.5" lengthAdjust="spacing" textLength="96.25" x="453.125" y="862.5415">UserMapper</text><!--MD5=[01a2e04289eefa46970f9de88ad0aba9]
link Controller to View--><path d="M126.8375,125.4375 C121.0875,165.1 111.0625,234.3125 105.025,275.9625 " fill="none" id="Controller-to-View" style="stroke:#A80036;stroke-width:1.25;"/><polygon fill="#A80036" points="104.0875,282.4,110.6451,271.9808,104.9814,276.2143,100.7479,270.5505,104.0875,282.4" style="stroke:#A80036;stroke-width:1.25;"/><!--MD5=[7a25e1c0cf9f57ccf31195bd84e79339]
link Controller to Model--><path d="M137.625,125 C143.8875,154.4625 152.5,195 152.5,195 C152.5,195 153.2625,375.9875 153.6,455.325 " fill="none" id="Controller-to-Model" style="stroke:#A80036;stroke-width:1.25;"/><polygon fill="#A80036" points="153.625,461.775,158.5606,450.4966,153.5893,455.5251,148.5608,450.5538,153.625,461.775" style="stroke:#A80036;stroke-width:1.25;"/><!--MD5=[6137f4216c2e3190e1b396a4f3f0263e]
link View to Model--><path d="M108.5125,341.45 C117.7625,372.2125 132.575,421.475 142.7125,455.1875 " fill="none" id="View-to-Model" style="stroke:#A80036;stroke-width:1.25;"/><polygon fill="#A80036" points="144.55,461.2875,146.0898,449.0731,142.7459,455.3035,136.5154,451.9597,144.55,461.2875" style="stroke:#A80036;stroke-width:1.25;"/><!--MD5=[43e38ad933c76623f5d36b91da88fb60]
link UsersControllerRest to UserService--><path d="M434.7375,354.1375 C452.85,381.3875 476.65,417.2125 495.45,445.5 " fill="none" id="UsersControllerRest-to-UserService" style="stroke:#A80036;stroke-width:1.25;"/><polygon fill="#A80036" points="499.1375,451.0625,497.0766,438.9252,495.6789,445.8567,488.7473,444.459,499.1375,451.0625" style="stroke:#A80036;stroke-width:1.25;"/><!--MD5=[1573853a96a9234aeed610422689d1e9]
reverse link UserService to UserServiceImpl--><path d="M548.7375,559.1875 C556.1125,580.4625 564.1,603.5125 570.7,622.5375 " fill="none" id="UserService-backto-UserServiceImpl" style="stroke:#A80036;stroke-width:1.25;"/><polygon fill="none" points="540.4,561.8625,540.475,535.375,556.9375,556.125,540.4,561.8625" style="stroke:#A80036;stroke-width:1.25;"/><!--MD5=[6031b3f989603d8768c62ccecec86285]
link UserServiceImpl to UserRepository--><path d="M613.1375,706.95 C632.55,735.0125 658.0875,771.95 676.675,798.825 " fill="none" id="UserServiceImpl-to-UserRepository" style="stroke:#A80036;stroke-width:1.25;"/><polygon fill="#A80036" points="680.2875,804.0625,678.0058,791.9647,676.7346,798.9206,669.7787,797.6494,680.2875,804.0625" style="stroke:#A80036;stroke-width:1.25;"/><!--MD5=[c954379721c1a5b5f52f7e59ac55cd84]
link UserServiceImpl to UserMapper--><path d="M564.725,706.95 C550.8625,734.775 532.65,771.3375 519.3,798.15 " fill="none" id="UserServiceImpl-to-UserMapper" style="stroke:#A80036;stroke-width:1.25;"/><polygon fill="#A80036" points="516.35,804.0625,525.8333,796.212,519.1308,798.4652,516.8776,791.7627,516.35,804.0625" style="stroke:#A80036;stroke-width:1.25;"/><!--MD5=[b29290bbd801bf5fabd8f793343e2523]
link UsersControllerRest to UserDTO--><path d="M386.275,354.1375 C358.975,406.9125 315,491.875 315,491.875 C315,491.875 315,491.875 315,836.875 C315,836.875 333.2,894.675 346.775,937.7625 " fill="none" id="UsersControllerRest-to-UserDTO" style="stroke:#A80036;stroke-width:1.25;stroke-dasharray:7.0,7.0;"/><polygon fill="#A80036" points="348.7375,944,350.123,931.7671,346.858,938.0393,340.5858,934.7743,348.7375,944" style="stroke:#A80036;stroke-width:1.25;"/><!--MD5=[f1c0d5f72b9974341cc8da8a468d7786]
link UserService to UserDTO--><path d="M509.125,535.225 C473.825,619.4 396.25,804.375 396.25,804.375 C396.25,804.375 380.625,884.45 370.25,937.6 " fill="none" id="UserService-to-UserDTO" style="stroke:#A80036;stroke-width:1.25;stroke-dasharray:7.0,7.0;"/><polygon fill="#A80036" points="369.0125,943.9375,376.071,933.8509,370.2073,937.8028,366.2554,931.9391,369.0125,943.9375" style="stroke:#A80036;stroke-width:1.25;"/><!--MD5=[7bf5c42d518777c633d8ff3b7b45880a]
link UserServiceImpl to UserDTO--><path d="M539.7,706.95 C494.35,747.6875 431.25,804.375 431.25,804.375 C431.25,804.375 399.875,884.775 379.1375,937.925 " fill="none" id="UserServiceImpl-to-UserDTO" style="stroke:#A80036;stroke-width:1.25;stroke-dasharray:7.0,7.0;"/><polygon fill="#A80036" points="376.7875,943.9375,385.5302,935.2699,379.0562,938.1138,376.2123,931.6399,376.7875,943.9375" style="stroke:#A80036;stroke-width:1.25;"/><!--MD5=[698a176f20ad458731231fbdffea641c]
link UserServiceImpl to UserEntity--><path d="M582.1875,707.3375 C578.1625,766.025 571.25,866.875 571.25,866.875 C571.25,866.875 564.0875,904.05 557.85,936.4625 " fill="none" id="UserServiceImpl-to-UserEntity" style="stroke:#A80036;stroke-width:1.25;stroke-dasharray:7.0,7.0;"/><polygon fill="#A80036" points="556.625,942.875,563.6552,932.7686,557.8026,936.737,553.8343,930.8844,556.625,942.875" style="stroke:#A80036;stroke-width:1.25;"/><!--MD5=[2ff689d11ef02fee5bf515471f73835b]
link UserMapper to UserDTO--><path d="M472.575,866.95 C451.1375,889.45 421.6125,920.425 398.3625,944.8125 " fill="none" id="UserMapper-to-UserDTO" style="stroke:#A80036;stroke-width:1.25;stroke-dasharray:7.0,7.0;"/><polygon fill="#A80036" points="393.8,949.6,405.1802,944.904,398.1112,945.075,397.9402,938.006,393.8,949.6" style="stroke:#A80036;stroke-width:1.25;"/><!--MD5=[5d68978e14d7a623699ec67dcd2c5e26]
link UserMapper to UserEntity--><path d="M510.975,866.95 C517.425,886.9 526.025,913.4875 533.3875,936.2625 " fill="none" id="UserMapper-to-UserEntity" style="stroke:#A80036;stroke-width:1.25;stroke-dasharray:7.0,7.0;"/><polygon fill="#A80036" points="535.4375,942.575,536.7562,930.3348,533.5255,936.6246,527.2356,933.3939,535.4375,942.575" style="stroke:#A80036;stroke-width:1.25;"/><!--MD5=[5f3a85cf2d89685798ad15d3f6c86460]
link UserRepository to UserEntity--><path d="M670.025,866.95 C648.125,888.0375 618.5125,916.55 594.0375,940.1375 " fill="none" id="UserRepository-to-UserEntity" style="stroke:#A80036;stroke-width:1.25;stroke-dasharray:7.0,7.0;"/><polygon fill="#A80036" points="589.2125,944.775,600.7897,940.5881,593.7201,940.4456,593.8626,933.3759,589.2125,944.775" style="stroke:#A80036;stroke-width:1.25;"/><!--MD5=[a7b64b6b06175f58836c314487e969c6]
link model_view_controller to spring_api_rest--><path d="M223.7502,104.4703 C223.9445,104.6544 224.1409,104.8404 224.3394,105.0285 C225.1334,105.7807 225.961,106.5647 226.8182,107.3768 C233.6754,113.873 242.4258,122.1633 251.0453,130.3297 C268.2844,146.6625 285,162.5 285,162.5 C285,162.5 285,185 285,185 C285,185 284.9242,192.6078 284.81,204.0791 C284.7814,206.9469 284.7504,210.0562 284.7176,213.3485 C284.7135,213.76 284.7094,214.1744 284.7053,214.5915 " fill="none" id="model_view_controller-spring_api_rest" style="stroke:#FFFFFF;stroke-width:1.25;stroke-dasharray:7.0,7.0;"/><!--MD5=[81f685fd758de8154bf4ac3774756b4a]
reverse link Controller to UsersControllerRest--><path d="M175.9,124.6875 C203.675,138.5 323.75,195 323.75,195 C323.75,195 353.8625,236.575 377.975,269.8625 " fill="none" id="Controller-backto-UsersControllerRest" style="stroke:#808080;stroke-width:1.25;stroke-dasharray:7.0,7.0;"/><polygon fill="#808080" points="170.3125,121.7875,177.9674,131.4294,175.8517,124.6822,182.5989,122.5666,170.3125,121.7875" style="stroke:#808080;stroke-width:1.25;"/><text fill="#000000" font-family="sans-serif" font-size="16.25" lengthAdjust="spacing" textLength="53.75" x="302.5" y="180.6189">«trace»</text><!--MD5=[a8c5688f152d6e5437603282ab45c6f7]
reverse link Controller to UserService--><path d="M176.7125,123.65 C210.7625,131.9625 367.5,162.5 367.5,162.5 C367.5,162.5 508.75,195 508.75,195 C508.75,195 519.0625,369.9125 523.85,451.2125 " fill="none" id="Controller-backto-UserService" style="stroke:#808080;stroke-width:1.25;stroke-dasharray:7.0,7.0;"/><polygon fill="#808080" points="170.3125,121.7875,179.7406,129.7042,176.3187,123.5163,182.5066,120.0944,170.3125,121.7875" style="stroke:#808080;stroke-width:1.25;"/><text fill="#000000" font-family="sans-serif" font-size="16.25" lengthAdjust="spacing" textLength="53.75" x="518.75" y="318.7439">«trace»</text><!--MD5=[c7908179e997e754c7d36e69df2ac8f2]
reverse link Controller to UserServiceImpl--><path d="M176.575,123.2375 C217.875,130.9 447.5,162.5 447.5,162.5 C447.5,162.5 583.75,195 583.75,195 C583.75,195 597.5,451.25 597.5,451.25 C597.5,451.25 597.5,574.375 597.5,574.375 C597.5,574.375 594.025,599.225 590.7375,622.725 " fill="none" id="Controller-backto-UserServiceImpl" style="stroke:#808080;stroke-width:1.25;stroke-dasharray:7.0,7.0;"/><polygon fill="#808080" points="170.3125,121.7875,180.1438,129.1975,176.4012,123.1981,182.4007,119.4556,170.3125,121.7875" style="stroke:#808080;stroke-width:1.25;"/><text fill="#000000" font-family="sans-serif" font-size="16.25" lengthAdjust="spacing" textLength="53.75" x="596.25" y="409.3689">«trace»</text><!--MD5=[1ea615c282634a51bb9b975066f25fd7]
reverse link View to UserDTO--><path d="M92.95,347.8875 C82.4,399.8875 63.75,491.875 63.75,491.875 C63.75,491.875 63.75,491.875 63.75,836.875 C63.75,836.875 250.8125,929.225 328.275,967.475 " fill="none" id="View-backto-UserDTO" style="stroke:#808080;stroke-width:1.25;stroke-dasharray:7.0,7.0;"/><polygon fill="#808080" points="94.25,341.45,87.1014,351.473,93.0002,347.5738,96.8995,353.4726,94.25,341.45" style="stroke:#808080;stroke-width:1.25;"/><text fill="#000000" font-family="sans-serif" font-size="16.25" lengthAdjust="spacing" textLength="53.75" x="65" y="671.8689">«trace»</text><!--MD5=[5c7d891ec964b5dd732a90bf02ec8ca0]
reverse link Model to UserEntity--><path d="M166.225,530.6125 C191.725,604.775 247.5,766.875 247.5,766.875 C247.5,766.875 426.8,895.9625 508.75,954.95 " fill="none" id="Model-backto-UserEntity" style="stroke:#808080;stroke-width:1.25;stroke-dasharray:7.0,7.0;"/><polygon fill="#808080" points="164.1375,524.575,163.0735,536.84,166.1727,530.4843,172.5284,533.5836,164.1375,524.575" style="stroke:#808080;stroke-width:1.25;"/><text fill="#000000" font-family="sans-serif" font-size="16.25" lengthAdjust="spacing" textLength="53.75" x="248.75" y="762.4939">«trace»</text><!--MD5=[dcbeef6779be5df5f1d3d499081cf728]
@startuml
'https://plantuml.com/class-diagram

!include skinParams.puml
 skinparam linetype polyline
package model_view_controller as "model view contoller"{

boundary View #9FB7E5
control Controller #C4E4AB
entity Model

Controller - -> View
Controller - -> Model
View - -> Model

}

package spring_api_rest as "spring api rest" {

control UsersControllerRest <<Controller>>
control UserService  <<Controller>>
control UserServiceImpl <<Controller>>
boundary UserDTO <<View>>
entity UserEntity <<Model>>
control UsersControllerRest
control UserRepository
control UserMapper

UsersControllerRest -down-> UserService
UserService <|-down- UserServiceImpl
UserServiceImpl -down-> UserRepository
UserServiceImpl -down-> UserMapper

UsersControllerRest .down.> UserDTO
UserService .down.> UserDTO
UserServiceImpl .down.> UserDTO
UserServiceImpl .down.> UserEntity
UserMapper .down.> UserDTO
UserMapper .down.> UserEntity
UserRepository .down.> UserEntity


}

model_view_controller .[#hidden]down. spring_api_rest

Controller <.[#Gray]. UsersControllerRest :<<trace>>
Controller <.[#Gray]. UserService :<<trace>>
Controller <.[#Gray]. UserServiceImpl :<<trace>>
View <.[#Gray]. UserDTO :<<trace>>
Model <.[#Gray]. UserEntity :<<trace>>





@enduml

@startuml


skinparam {
    BoundaryBackgroundColor #629EF9
    BoundaryBorderColor black
    BoundaryFontSize 12
    BoundarySize 10
    ControlBackgroundColor #b5bd68
    ControlBorderColor #718c00
    EntityBackgroundColor #F2AC4E
    EntityBorderColor black
}

 skinparam linetype polyline
package model_view_controller as "model view contoller"{

boundary View #9FB7E5
control Controller #C4E4AB
entity Model

Controller - -> View
Controller - -> Model
View - -> Model

}

package spring_api_rest as "spring api rest" {

control UsersControllerRest <<Controller>>
control UserService  <<Controller>>
control UserServiceImpl <<Controller>>
boundary UserDTO <<View>>
entity UserEntity <<Model>>
control UsersControllerRest
control UserRepository
control UserMapper

UsersControllerRest -down-> UserService
UserService <|-down- UserServiceImpl
UserServiceImpl -down-> UserRepository
UserServiceImpl -down-> UserMapper

UsersControllerRest .down.> UserDTO
UserService .down.> UserDTO
UserServiceImpl .down.> UserDTO
UserServiceImpl .down.> UserEntity
UserMapper .down.> UserDTO
UserMapper .down.> UserEntity
UserRepository .down.> UserEntity


}

model_view_controller .[#hidden]down. spring_api_rest

Controller <.[#Gray]. UsersControllerRest :<<trace>>
Controller <.[#Gray]. UserService :<<trace>>
Controller <.[#Gray]. UserServiceImpl :<<trace>>
View <.[#Gray]. UserDTO :<<trace>>
Model <.[#Gray]. UserEntity :<<trace>>





@enduml

PlantUML version 1.2021.00(Sun Jan 10 11:25:05 CET 2021)
(GPL source distribution)
Java Runtime: OpenJDK Runtime Environment
JVM: OpenJDK 64-Bit Server VM
Default Encoding: Cp1252
Language: en
Country: GB
--></g></svg>